<svg version="1.1" xmlns="http://www.w3.org/2000/svg" viewBox="0 0 260 164" width="780" height="492"><!-- svg-source:excalidraw --><metadata></metadata><defs><style class="style-fonts">
      </style></defs><g stroke-linecap="round" transform="translate(47.23826413268978 36.80098152238861) rotate(329.9458399195344 64.38772131362651 37.225207463939086)"><path d="M81.25 9.5 C94.4 16.25, 105.26 25.45, 112.53 28.5 M81.25 9.5 C87.6 14.54, 95.51 18, 112.53 28.5 M112.53 28.5 C130.31 39.34, 127.22 39.37, 112.53 47.5 M112.53 28.5 C126.54 39.7, 127.42 36.2, 112.53 47.5 M112.53 47.5 C102.92 53.38, 90.76 61.58, 81.25 64.95 M112.53 47.5 C102.39 52.53, 90.97 58.53, 81.25 64.95 M81.25 64.95 C63.37 73.82, 65.45 73.88, 48.75 64.95 M81.25 64.95 C62.72 76.53, 65.32 76.37, 48.75 64.95 M48.75 64.95 C39.88 62.16, 32.92 56.94, 16.25 47.5 M48.75 64.95 C40.5 59.61, 33.29 56.87, 16.25 47.5 M16.25 47.5 C-1.69 36.72, 0.15 38.11, 16.25 28.5 M16.25 47.5 C0.88 39.46, 0.19 38.83, 16.25 28.5 M16.25 28.5 C22.63 25.58, 31.01 19.24, 48.75 9.5 M16.25 28.5 C28.48 22.07, 41.05 13.86, 48.75 9.5 M48.75 9.5 C66.56 1.45, 63.66 -1.55, 81.25 9.5 M48.75 9.5 C63.87 0.24, 64.43 -0.54, 81.25 9.5" stroke="#1e1e1e" stroke-width="2" fill="none"></path></g><g transform="translate(90 26) rotate(0 22 39)" stroke="none"><path fill="#1e1e1e" d="M 4.57,-2.15 Q 4.57,-2.15 5.66,0.07 6.75,2.29 8.94,5.83 11.13,9.37 13.50,13.03 15.87,16.68 17.27,19.57 18.66,22.45 19.91,24.88 21.16,27.31 22.20,29.44 23.24,31.57 24.92,34.66 26.60,37.75 27.92,40.36 29.24,42.97 30.74,45.37 32.24,47.78 33.79,50.47 35.34,53.17 36.47,55.02 37.60,56.87 39.47,59.39 41.34,61.91 42.80,64.32 44.25,66.74 45.72,68.31 47.20,69.88 48.85,72.62 50.50,75.36 50.72,76.47 50.94,77.59 50.80,78.71 50.65,79.84 50.16,80.86 49.66,81.88 48.87,82.69 48.07,83.49 47.06,84.01 46.04,84.52 44.92,84.68 43.80,84.84 42.68,84.64 41.57,84.43 40.57,83.88 39.58,83.33 38.82,82.49 38.05,81.65 37.60,80.62 37.14,79.58 37.04,78.45 36.94,77.32 37.20,76.21 37.47,75.11 38.07,74.15 38.68,73.19 39.56,72.47 40.43,71.75 41.50,71.35 42.56,70.95 43.69,70.91 44.83,70.87 45.91,71.20 47.00,71.52 47.93,72.18 48.85,72.83 49.52,73.75 50.19,74.67 50.53,75.75 50.88,76.83 50.85,77.97 50.83,79.10 50.45,80.17 50.06,81.24 49.36,82.13 48.66,83.02 47.71,83.63 46.75,84.25 45.65,84.53 44.56,84.82 43.42,84.73 42.29,84.65 41.25,84.21 40.20,83.77 39.35,83.02 38.50,82.27 37.93,81.28 37.37,80.30 37.37,80.30 37.37,80.30 36.82,78.61 36.28,76.92 34.63,75.22 32.98,73.52 31.72,71.30 30.46,69.07 29.22,67.28 27.99,65.49 26.61,62.98 25.23,60.46 23.72,57.44 22.20,54.42 20.45,51.23 18.69,48.05 17.63,45.43 16.57,42.81 15.05,39.46 13.52,36.11 12.65,34.15 11.78,32.19 10.52,29.78 9.25,27.38 6.94,23.09 4.63,18.80 3.20,16.68 1.77,14.56 0.77,12.66 -0.22,10.76 -1.38,8.71 -2.53,6.67 -3.55,4.41 -4.57,2.15 -4.76,1.57 -4.95,0.99 -5.00,0.38 -5.05,-0.22 -4.95,-0.82 -4.85,-1.42 -4.61,-1.98 -4.36,-2.54 -4.00,-3.02 -3.63,-3.51 -3.16,-3.89 -2.68,-4.28 -2.13,-4.54 -1.58,-4.80 -0.98,-4.92 -0.38,-5.04 0.22,-5.01 0.82,-4.98 1.41,-4.81 1.99,-4.64 2.52,-4.33 3.05,-4.03 3.49,-3.60 3.92,-3.18 4.25,-2.66 4.57,-2.15 4.57,-2.15 L 4.57,-2.15 Z"></path></g><g transform="translate(154 26) rotate(0 21.5 36.5)" stroke="none"><path fill="#1e1e1e" d="M 3.61,-2.13 Q 3.61,-2.13 5.43,1.10 7.25,4.33 9.06,6.98 10.86,9.63 12.58,12.76 14.30,15.89 16.15,18.86 17.99,21.82 19.98,25.44 21.98,29.06 24.43,33.65 26.88,38.24 28.65,40.82 30.41,43.41 31.93,45.75 33.45,48.09 35.76,50.97 38.07,53.84 39.73,56.78 41.38,59.72 42.74,61.96 44.09,64.21 45.02,66.28 45.95,68.35 46.03,68.31 46.10,68.26 46.75,68.91 47.40,69.56 47.81,70.38 48.21,71.20 48.34,72.10 48.46,73.01 48.29,73.91 48.12,74.81 47.67,75.61 47.22,76.40 46.54,77.01 45.86,77.62 45.02,77.99 44.17,78.35 43.26,78.42 42.35,78.50 41.46,78.28 40.57,78.06 39.80,77.57 39.03,77.07 38.46,76.36 37.88,75.65 37.57,74.79 37.25,73.93 37.23,73.01 37.20,72.10 37.47,71.22 37.74,70.35 38.27,69.61 38.81,68.86 39.55,68.33 40.29,67.79 41.17,67.52 42.04,67.26 42.96,67.28 43.87,67.30 44.73,67.62 45.59,67.93 46.30,68.51 47.02,69.08 47.51,69.85 48.00,70.62 48.22,71.51 48.45,72.40 48.37,73.31 48.30,74.22 47.94,75.06 47.57,75.91 46.96,76.59 46.35,77.27 45.56,77.72 44.76,78.17 43.86,78.34 42.96,78.51 42.06,78.39 41.15,78.27 40.33,77.86 39.51,77.46 39.51,77.46 39.51,77.46 37.32,74.35 35.13,71.25 34.41,69.14 33.68,67.04 32.43,64.05 31.17,61.06 30.06,58.53 28.95,56.01 27.80,54.02 26.66,52.02 25.46,49.66 24.26,47.31 22.59,44.48 20.92,41.65 18.25,37.27 15.57,32.88 13.40,29.50 11.23,26.12 9.18,22.97 7.12,19.81 5.60,17.00 4.07,14.18 2.17,11.31 0.28,8.45 -1.66,5.29 -3.61,2.13 -3.81,1.66 -4.01,1.20 -4.10,0.70 -4.19,0.20 -4.15,-0.29 -4.11,-0.80 -3.96,-1.28 -3.80,-1.76 -3.54,-2.19 -3.27,-2.62 -2.91,-2.97 -2.55,-3.33 -2.11,-3.58 -1.67,-3.84 -1.19,-3.99 -0.71,-4.13 -0.20,-4.16 0.29,-4.18 0.79,-4.08 1.29,-3.99 1.75,-3.77 2.21,-3.56 2.60,-3.25 2.99,-2.93 3.30,-2.53 3.61,-2.13 3.61,-2.13 L 3.61,-2.13 Z"></path></g><g stroke-linecap="round" transform="translate(170 74) rotate(0 32 32)"><path d="M29.05 0.06 C35 -0.98, 42.46 0.41, 47.75 3.49 C53.03 6.57, 58.18 12.58, 60.78 18.55 C63.39 24.51, 64.78 32.99, 63.39 39.27 C62 45.55, 57.17 52.16, 52.44 56.2 C47.71 60.24, 41.05 63.1, 35.01 63.51 C28.97 63.92, 21.57 61.94, 16.19 58.65 C10.81 55.36, 5.18 49.5, 2.72 43.78 C0.26 38.05, -0.05 30.09, 1.45 24.28 C2.94 18.46, 6.65 12.95, 11.7 8.87 C16.75 4.78, 27.89 0.99, 31.75 -0.22 C35.61 -1.43, 34.63 0.93, 34.87 1.6 M46.23 2.03 C51.62 4.53, 58.13 11.88, 61 17.5 C63.88 23.13, 64.7 29.65, 63.47 35.78 C62.24 41.91, 58.08 49.74, 53.61 54.27 C49.15 58.81, 42.91 61.85, 36.66 62.98 C30.42 64.11, 21.9 63.79, 16.13 61.03 C10.35 58.26, 4.82 52.16, 2.03 46.37 C-0.76 40.57, -1.62 32.38, -0.62 26.26 C0.38 20.13, 3.18 13.97, 8.01 9.62 C12.85 5.26, 21.93 1.22, 28.42 0.13 C34.9 -0.97, 44.09 2.5, 46.9 3.05 C49.71 3.6, 45.38 2.85, 45.27 3.42" stroke="#1e1e1e" stroke-width="2" fill="none"></path></g><g stroke-linecap="round" transform="translate(26 74) rotate(0 32 32)"><path d="M42.19 2.32 C48.03 4.03, 55.16 9.17, 58.64 14.24 C62.13 19.31, 63.41 26.49, 63.1 32.74 C62.79 38.98, 60.61 46.85, 56.78 51.73 C52.96 56.6, 46.08 60.43, 40.15 61.98 C34.22 63.53, 27 63.2, 21.18 61.03 C15.37 58.87, 8.87 54.22, 5.27 49 C1.67 43.77, -0.72 35.69, -0.41 29.68 C-0.1 23.68, 3.2 17.71, 7.14 12.99 C11.09 8.27, 16.02 2.63, 23.25 1.37 C30.49 0.11, 45.05 3.47, 50.54 5.46 C56.03 7.45, 56.44 12.89, 56.19 13.33 M31.94 0.27 C38.04 -0.34, 45.73 2.33, 50.96 5.92 C56.2 9.51, 61.29 15.93, 63.34 21.81 C65.4 27.69, 65.44 35.32, 63.32 41.2 C61.2 47.08, 55.78 53.05, 50.61 57.08 C45.45 61.11, 38.66 65.34, 32.32 65.4 C25.97 65.45, 17.84 61.3, 12.54 57.39 C7.25 53.49, 2.26 47.74, 0.54 41.96 C-1.17 36.17, 0.45 28.84, 2.27 22.68 C4.09 16.52, 6.68 8.57, 11.46 4.99 C16.23 1.41, 27.81 2.13, 30.93 1.19 C34.05 0.25, 30.3 -1.23, 30.16 -0.64" stroke="#1e1e1e" stroke-width="2" fill="none"></path></g><g stroke-linecap="round" transform="translate(154 58) rotate(0 48 48)"><path d="M38.72 -0.22 C46.11 -1.99, 57.56 0.41, 65.32 3.41 C73.08 6.41, 80.17 11.8, 85.29 17.78 C90.4 23.75, 94.81 31.32, 96 39.24 C97.18 47.16, 95.23 57.6, 92.39 65.29 C89.54 72.97, 85.03 80.43, 78.95 85.34 C72.86 90.26, 63.81 93.41, 55.88 94.79 C47.94 96.17, 38.63 96.18, 31.34 93.62 C24.05 91.07, 17.15 85.64, 12.12 79.47 C7.08 73.3, 2.77 64.65, 1.13 56.6 C-0.52 48.55, -0.38 38.8, 2.23 31.17 C4.84 23.54, 10.26 15.86, 16.78 10.81 C23.3 5.75, 37.23 2.38, 41.33 0.83 C45.43 -0.71, 41.38 0.76, 41.38 1.54 M65.44 3.86 C72.63 5.59, 79.79 10.44, 84.64 16.39 C89.49 22.34, 93.31 31.48, 94.53 39.57 C95.75 47.67, 94.64 57.48, 91.96 64.96 C89.27 72.43, 84.46 79.35, 78.42 84.45 C72.38 89.55, 63.58 94.18, 55.74 95.57 C47.9 96.96, 38.56 95.76, 31.4 92.8 C24.23 89.84, 18.04 83.58, 12.73 77.81 C7.42 72.05, 1.25 65.85, -0.49 58.22 C-2.24 50.58, -0.79 39.73, 2.27 32 C5.33 24.27, 11.51 17.21, 17.89 11.83 C24.27 6.44, 33.02 1.26, 40.55 -0.32 C48.08 -1.91, 59.4 1.8, 63.06 2.32 C66.73 2.83, 62.77 1.78, 62.54 2.76" stroke="#1e1e1e" stroke-width="2" fill="none"></path></g><g stroke-linecap="round" transform="translate(10 58) rotate(0 48 48)"><path d="M62.68 2.94 C70.19 5.01, 78.38 10.98, 83.87 17.08 C89.36 23.19, 94.05 31.82, 95.59 39.55 C97.14 47.27, 95.74 56.09, 93.14 63.42 C90.55 70.76, 86.03 78.2, 80.02 83.55 C74.02 88.89, 65.13 93.87, 57.12 95.48 C49.12 97.09, 39.43 95.93, 32 93.21 C24.57 90.5, 17.62 85.32, 12.54 79.18 C7.46 73.03, 3.21 64.13, 1.51 56.34 C-0.2 48.55, -0.2 39.73, 2.29 32.43 C4.77 25.13, 10.3 17.85, 16.42 12.55 C22.53 7.25, 30.7 2.23, 38.98 0.63 C47.26 -0.96, 61.27 2.19, 66.12 2.99 C70.97 3.78, 68.51 4.76, 68.09 5.41 M60.29 0.47 C67.8 1.71, 76.94 8.17, 82.78 13.88 C88.61 19.58, 93.41 26.81, 95.32 34.69 C97.22 42.56, 96.44 53.16, 94.21 61.13 C91.98 69.09, 87.64 77.11, 81.93 82.47 C76.22 87.83, 67.9 91.38, 59.94 93.26 C51.98 95.15, 41.61 95.6, 34.15 93.77 C26.68 91.94, 20.54 87.9, 15.14 82.28 C9.75 76.65, 3.89 67.62, 1.77 60.01 C-0.35 52.41, 0.46 44.54, 2.4 36.65 C4.34 28.77, 7.81 18.45, 13.4 12.7 C18.99 6.94, 27.8 3.77, 35.95 2.1 C44.09 0.42, 58.2 2.69, 62.28 2.66 C66.35 2.63, 61 1.06, 60.38 1.91" stroke="#1e1e1e" stroke-width="2" fill="none"></path></g><g transform="translate(154 26) rotate(0 24 8)" stroke="none"><path fill="#1e1e1e" d="M 0,-2.58 Q 0,-2.58 1.16,-2.60 2.33,-2.62 3.60,-2.63 4.87,-2.64 6.39,-2.61 7.90,-2.58 9.13,-2.60 10.35,-2.61 11.84,-2.69 13.33,-2.76 14.71,-2.85 16.08,-2.94 17.29,-2.93 18.49,-2.92 20.36,-2.95 22.23,-2.98 24.03,-3.00 25.84,-3.03 27.56,-3.05 29.29,-3.07 30.41,-2.84 31.53,-2.60 32.73,-2.57 33.93,-2.54 35.18,-2.29 36.43,-2.04 37.57,-1.64 38.71,-1.24 40.15,-0.91 41.59,-0.58 42.78,-0.24 43.96,0.09 45.86,0.32 47.76,0.54 48.79,1.21 49.82,1.87 50.27,3.32 50.72,4.78 51.00,5.89 51.29,7.01 51.39,8.55 51.48,10.09 51.11,11.19 50.74,12.30 49.45,14.19 48.16,16.08 47.22,16.62 46.28,17.16 45.11,17.34 43.94,17.53 42.69,17.86 41.45,18.20 40.26,18.25 39.06,18.29 37.77,18.64 36.48,18.99 35.25,19.32 34.02,19.65 31.31,19.69 28.60,19.74 28.01,19.64 27.41,19.54 26.87,19.26 26.34,18.97 25.92,18.53 25.51,18.09 25.25,17.55 25.00,17.00 24.93,16.39 24.87,15.79 25.00,15.20 25.13,14.61 25.44,14.09 25.75,13.57 26.21,13.18 26.67,12.79 27.23,12.57 27.80,12.34 28.40,12.31 29.01,12.28 29.59,12.44 30.17,12.60 30.67,12.94 31.17,13.28 31.54,13.76 31.91,14.24 32.10,14.82 32.29,15.39 32.29,15.99 32.29,16.60 32.10,17.17 31.91,17.75 31.54,18.23 31.17,18.71 30.67,19.05 30.17,19.39 29.59,19.55 29.01,19.71 28.40,19.68 27.80,19.65 27.24,19.42 26.67,19.20 26.21,18.81 25.75,18.42 25.44,17.90 25.13,17.38 25.00,16.79 24.87,16.20 24.93,15.60 25.00,14.99 25.25,14.45 25.51,13.90 25.92,13.46 26.34,13.02 26.87,12.73 27.41,12.45 28.00,12.35 28.60,12.25 28.60,12.25 28.60,12.25 30.84,12.37 33.09,12.49 35.09,12.02 37.10,11.55 38.83,11.35 40.55,11.15 42.14,11.17 43.73,11.19 44.19,10.01 44.65,8.83 44.26,7.03 43.87,5.24 44.91,6.04 45.94,6.84 44.80,6.78 43.66,6.72 42.40,6.45 41.15,6.18 40.07,5.86 38.99,5.54 37.02,4.88 35.06,4.21 33.89,4.02 32.72,3.82 30.97,3.45 29.23,3.07 27.53,3.05 25.84,3.03 24.03,3.00 22.23,2.98 20.36,2.95 18.49,2.92 17.29,2.93 16.08,2.94 14.71,2.85 13.33,2.76 11.84,2.69 10.35,2.61 9.13,2.60 7.90,2.58 6.39,2.61 4.87,2.64 3.60,2.63 2.33,2.62 1.16,2.60 0,2.58 -0.30,2.54 -0.61,2.51 -0.91,2.40 -1.20,2.29 -1.45,2.11 -1.71,1.93 -1.92,1.70 -2.12,1.46 -2.27,1.19 -2.41,0.91 -2.49,0.61 -2.56,0.31 -2.56,-0.00 -2.56,-0.31 -2.49,-0.61 -2.41,-0.91 -2.27,-1.19 -2.12,-1.46 -1.92,-1.70 -1.71,-1.93 -1.45,-2.11 -1.20,-2.29 -0.91,-2.40 -0.61,-2.51 -0.30,-2.54 0.00,-2.58 0.00,-2.58 L 0,-2.58 Z"></path></g><g transform="translate(78 10) rotate(0 19 7)" stroke="none"><path fill="#1e1e1e" d="M 0,-2.31 Q 0,-2.31 1.72,-2.27 3.44,-2.24 5.04,-2.24 6.64,-2.23 8.18,-2.24 9.72,-2.25 11.23,-2.26 12.75,-2.26 13.97,-2.31 15.19,-2.35 16.29,-2.40 17.39,-2.44 19.21,-2.10 21.03,-1.77 22.20,-1.69 23.37,-1.61 24.97,-1.52 26.58,-1.43 28.85,-1.47 31.12,-1.51 32.77,-1.19 34.43,-0.86 35.59,-0.41 36.75,0.04 38.01,0.10 39.26,0.17 41.05,0.95 42.84,1.73 43.70,3.02 44.55,4.31 44.33,6.50 44.10,8.70 43.00,10.07 41.90,11.45 40.96,12.02 40.01,12.59 38.45,13.68 36.88,14.77 35.44,15.01 34.00,15.25 32.80,15.66 31.59,16.07 30.34,16.18 29.09,16.28 26.92,16.77 24.75,17.26 22.76,17.27 20.77,17.27 19.39,17.21 18.02,17.16 16.49,17.18 14.97,17.20 13.46,17.22 11.96,17.24 10.17,17.23 8.38,17.23 6.42,17.22 4.46,17.20 2.87,17.21 1.29,17.23 -0.66,16.79 -2.61,16.35 -4.05,15.27 -5.49,14.19 -5.81,12.89 -6.14,11.58 -6.59,10.60 -7.05,9.63 -7.21,8.27 -7.36,6.91 -7.39,5.84 -7.43,4.77 -5.50,1.60 -3.57,-1.56 -3.08,-1.79 -2.60,-2.02 -2.06,-2.08 -1.53,-2.14 -1.01,-2.02 -0.48,-1.91 -0.02,-1.64 0.43,-1.36 0.78,-0.96 1.12,-0.55 1.32,-0.05 1.53,0.43 1.56,0.97 1.59,1.50 1.45,2.02 1.31,2.53 1.01,2.98 0.71,3.42 0.28,3.75 -0.13,4.08 -0.64,4.25 -1.14,4.42 -1.68,4.43 -2.21,4.43 -2.72,4.26 -3.23,4.09 -3.66,3.77 -4.09,3.45 -4.39,3.01 -4.69,2.56 -4.84,2.05 -4.98,1.53 -4.96,1.00 -4.93,0.46 -4.73,-0.03 -4.54,-0.52 -4.19,-0.93 -3.85,-1.34 -3.39,-1.62 -2.93,-1.90 -2.41,-2.02 -1.89,-2.14 -1.36,-2.08 -0.82,-2.02 -0.34,-1.80 0.14,-1.58 0.53,-1.21 0.92,-0.85 1.17,-0.37 1.43,0.09 1.52,0.62 1.61,1.14 1.52,1.67 1.44,2.20 1.19,2.68 0.94,3.15 0.55,3.52 0.17,3.89 0.17,3.89 0.17,3.89 -0.19,4.78 -0.56,5.67 -0.54,6.81 -0.53,7.95 -0.72,9.15 -0.92,10.34 0.18,10.55 1.29,10.76 2.87,10.78 4.46,10.79 6.42,10.77 8.38,10.76 10.17,10.76 11.96,10.75 13.46,10.77 14.96,10.78 16.48,10.80 18.00,10.82 19.36,10.76 20.71,10.69 21.85,10.65 22.99,10.61 24.53,10.61 26.07,10.61 27.26,10.13 28.44,9.64 29.71,9.55 30.98,9.45 32.80,9.17 34.63,8.89 36.03,7.98 37.44,7.07 38.38,6.24 39.33,5.42 38.22,5.38 37.11,5.35 35.25,4.67 33.39,4.00 32.23,3.74 31.06,3.48 28.75,3.38 26.43,3.28 24.66,3.26 22.90,3.24 21.54,3.08 20.19,2.92 18.78,2.68 17.37,2.44 16.28,2.40 15.19,2.35 13.97,2.31 12.75,2.26 11.23,2.26 9.72,2.25 8.18,2.24 6.64,2.23 5.04,2.24 3.44,2.24 1.72,2.27 0,2.31 -0.27,2.27 -0.55,2.24 -0.81,2.14 -1.07,2.04 -1.30,1.88 -1.53,1.72 -1.71,1.52 -1.90,1.31 -2.03,1.06 -2.16,0.81 -2.22,0.54 -2.29,0.27 -2.29,-0.00 -2.29,-0.27 -2.22,-0.54 -2.16,-0.81 -2.03,-1.06 -1.90,-1.31 -1.71,-1.52 -1.53,-1.72 -1.30,-1.88 -1.07,-2.04 -0.81,-2.14 -0.55,-2.24 -0.27,-2.27 0.00,-2.31 0.00,-2.31 L 0,-2.31 Z"></path></g></svg>